<?xml version="1.0" encoding="utf-8"?>
<!DOCTYPE svg PUBLIC "-//W3C//DTD SVG 1.1//EN" "http://www.w3.org/Graphics/SVG/1.1/DTD/svg11.dtd">
<svg version="1.0" xmlns="http://www.w3.org/2000/svg"  viewBox="0 0 535.000000 775.000000">

<g transform="translate(0.000000,775.000000) scale(0.100000,-0.100000)">
    <path d="M220 7727 c0 -13 68 -710 150 -1549 83 -839 150 -1535 150 -1547 0
-21 -3 -21 -235 -21 l-235 0 0 -2265 0 -2265 2595 0 2595 0 0 2265 0 2265
-290 0 -291 0 6 33 c6 35 385 3084 385 3098 0 5 -43 9 -95 9 -84 0 -95 -2 -95
-17 -1 -10 -88 -715 -194 -1568 l-192 -1550 -165 0 -164 0 -3 1568 -2 1567
-95 0 -95 0 0 -1570 0 -1570 -1365 0 -1365 0 0 1570 0 1570 -90 0 -90 0 -2
-1567 -3 -1568 -158 -3 c-121 -2 -158 0 -162 10 -2 7 -72 704 -155 1548 -83
844 -153 1545 -156 1558 -4 21 -9 22 -94 22 -88 0 -90 -1 -90 -23z"/>
</g>
</svg>
